<svg xmlns="http://www.w3.org/2000/svg" width="171" height="26" viewBox="0 0 171 26" fill="none"><g clip-path="url(#clip0_1_1384)"><path d="M25.0415 7.71687C22.7079 7.71687 20.8679 8.65906 19.4992 10.5434V1.07666H14.9441V25.5961H19.4992V23.2406C20.8679 25.0577 22.7079 25.9774 25.0415 25.9774C26.1247 25.9985 27.1993 25.7802 28.1884 25.3381C29.1774 24.896 30.0567 24.2411 30.7634 23.4201C32.2892 21.7151 33.0521 19.5167 33.0521 16.8472C33.0521 14.1776 32.2892 11.9792 30.7634 10.2742C30.0538 9.45668 29.174 8.80415 28.1856 8.36238C27.1972 7.92061 26.1241 7.70029 25.0415 7.71687ZM27.1508 20.3243C26.7514 20.7631 26.2619 21.1105 25.7159 21.3428C25.1699 21.5751 24.5801 21.6868 23.9869 21.6703C23.3868 21.6892 22.7896 21.5788 22.236 21.3465C21.6823 21.1143 21.1851 20.7656 20.7782 20.3243C19.9255 19.427 19.4992 18.2829 19.4992 16.8472C19.4992 15.4114 19.9255 14.2673 20.7782 13.37C21.1883 12.9327 21.686 12.5868 22.2389 12.3548C22.7918 12.1229 23.3874 12.0102 23.9869 12.024C24.5837 12.0051 25.1775 12.1156 25.7276 12.348C26.2776 12.5803 26.7708 12.929 27.1732 13.37C28.0034 14.2673 28.4073 15.4114 28.4073 16.8472C28.4073 18.2829 27.981 19.427 27.1508 20.3243Z" fill="#5E4FFF"></path><path d="M40.1876 11.1491V8.09816H35.6326V25.6184H40.1876V17.8117C40.1876 15.8825 40.6813 14.4916 41.6686 13.6616C42.6559 12.8316 43.9573 12.4053 45.5729 12.4053C45.8422 12.4053 46.2236 12.4278 46.6948 12.4726V7.7841C46.3598 7.74223 46.0227 7.71976 45.6851 7.7168C43.0822 7.7168 41.2647 8.86089 40.1876 11.1491Z" fill="#5E4FFF"></path><path d="M60.6294 10.5438C59.2607 8.65937 57.4207 7.71718 55.0871 7.71718C54.0104 7.69636 52.9426 7.91499 51.9608 8.35728C50.979 8.79956 50.1077 9.45444 49.4101 10.2746C47.8843 11.9795 47.1213 14.1779 47.1213 16.8475C47.1213 19.517 47.8843 21.7155 49.3876 23.4204C50.891 25.1253 52.7983 25.9777 55.132 25.9777C57.4656 25.9777 59.2831 25.058 60.607 23.2409V25.5964H65.1621L65.1845 8.07611H60.6294V10.5438ZM59.3504 20.3246C58.9403 20.7619 58.4426 21.1078 57.8897 21.3398C57.3368 21.5717 56.7411 21.6844 56.1417 21.6706C55.5485 21.6871 54.9587 21.5755 54.4127 21.3432C53.8667 21.1108 53.3772 20.7634 52.9778 20.3246C52.1476 19.4273 51.7213 18.2832 51.7213 16.8475C51.7213 15.4117 52.1252 14.2677 52.9554 13.3703C53.3578 12.9293 53.851 12.5806 54.401 12.3483C54.9511 12.1159 55.5449 12.0054 56.1417 12.0243C56.7418 12.0054 57.339 12.1159 57.8926 12.3481C58.4463 12.5803 58.9435 12.929 59.3504 13.3703C60.2031 14.2677 60.6294 15.4117 60.6294 16.8475C60.6294 18.2832 60.2031 19.4273 59.3504 20.3246Z" fill="#5E4FFF"></path><path d="M73.3073 8.09814H68.7522V25.6184H73.3073V8.09814Z" fill="#5E4FFF"></path><path d="M71.0409 9.43828e-05C70.6706 -0.0129308 70.3013 0.0477929 69.9546 0.178733C69.6079 0.309674 69.2907 0.508218 69.0214 0.762821C68.7597 1.00556 68.5524 1.30099 68.4131 1.62967C68.2739 1.95834 68.2059 2.31279 68.2137 2.66964C68.2035 3.03344 68.2702 3.3953 68.4094 3.73159C68.5486 4.06788 68.7571 4.37105 69.0214 4.62132C69.5835 5.11322 70.3051 5.38438 71.0522 5.38438C71.7992 5.38438 72.5208 5.11322 73.0829 4.62132C73.5865 4.10086 73.8681 3.40504 73.8681 2.68085C73.8681 1.95667 73.5865 1.26085 73.0829 0.740387C72.5263 0.234441 71.7925 -0.0315761 71.0409 9.43828e-05Z" fill="#5E4FFF"></path><path d="M86.8827 7.7168C84.5715 7.7168 82.7539 8.63655 81.4301 10.4985V8.12059H76.875V25.6409H81.4301V16.4433C81.4301 13.527 82.7539 12.0913 85.3793 12.0913C86.5461 12.0913 87.3763 12.3829 87.8924 12.9886C88.4085 13.5943 88.6553 14.4692 88.6553 15.6581V25.6633H93.2104V14.6711C93.2104 12.5175 92.6494 10.835 91.5275 9.60118C90.4055 8.32249 88.8573 7.7168 86.8827 7.7168Z" fill="#5E4FFF"></path><path d="M106.853 7.71687C104.542 7.71687 102.724 8.63663 101.401 10.4986V1.07666H96.8455V25.5961H101.401V16.3985C101.401 13.4822 102.702 12.0465 105.327 12.0465C106.494 12.0465 107.324 12.3381 107.84 12.9438C108.357 13.5495 108.603 14.4244 108.603 15.6133V25.6185H113.158V14.6263C113.158 12.4727 112.597 10.7902 111.475 9.55639C110.354 8.32256 108.805 7.71687 106.853 7.71687Z" fill="#5E4FFF"></path><path d="M128.125 17.2957C128.125 18.709 127.788 19.8082 127.115 20.5485C126.442 21.2888 125.477 21.6702 124.243 21.6702C123.099 21.6702 122.269 21.3786 121.775 20.7729C121.281 20.1672 121.034 19.2923 121.034 18.1033V8.09814H116.479V19.0904C116.479 21.2215 117.04 22.904 118.162 24.1378C119.284 25.3717 120.81 25.9998 122.74 25.9998C125.006 25.9998 126.824 25.0576 128.148 23.1956V25.6184H132.703V8.09814H128.148V17.2957H128.125Z" fill="#5E4FFF"></path><path d="M146.39 7.71687C144.057 7.71687 142.217 8.65906 140.848 10.5434V1.07666H136.293V25.5961H140.848V23.2406C142.217 25.0577 144.057 25.9774 146.39 25.9774C147.474 25.9985 148.548 25.7802 149.537 25.3381C150.526 24.896 151.406 24.2411 152.112 23.4201C153.638 21.7151 154.401 19.5167 154.401 16.8472C154.401 14.1776 153.638 11.9792 152.112 10.2742C151.403 9.45668 150.523 8.80415 149.534 8.36238C148.546 7.92061 147.473 7.70029 146.39 7.71687ZM148.5 20.3243C148.1 20.7631 147.611 21.1105 147.065 21.3428C146.519 21.5751 145.929 21.6868 145.336 21.6703C144.736 21.6892 144.138 21.5788 143.585 21.3465C143.031 21.1143 142.534 20.7656 142.127 20.3243C141.274 19.427 140.848 18.2829 140.848 16.8472C140.848 15.4114 141.274 14.2673 142.127 13.37C142.537 12.9327 143.035 12.5868 143.588 12.3548C144.141 12.1229 144.736 12.0102 145.336 12.024C145.933 12.0051 146.526 12.1156 147.076 12.348C147.626 12.5803 148.12 12.929 148.522 13.37C149.352 14.2673 149.756 15.4114 149.756 16.8472C149.756 18.2829 149.352 19.427 148.5 20.3243Z" fill="#5E4FFF"></path><path d="M167.258 13.6391L161.693 8.09814L158.484 11.2836L164.049 16.8471L158.484 22.4105L161.693 25.596L170.444 16.8471L167.258 13.6391Z" fill="#5E4FFF"></path><path d="M4.15116 20.9751C6.44379 20.9751 8.30232 19.117 8.30232 16.8249C8.30232 14.5329 6.44379 12.6748 4.15116 12.6748C1.85854 12.6748 0 14.5329 0 16.8249C0 19.117 1.85854 20.9751 4.15116 20.9751Z" fill="#5E4FFF"></path></g><defs><clipPath id="clip0_1_1384"><rect width="170.444" height="26" fill="white"></rect></clipPath></defs></svg>