<svg width="188" height="24" viewBox="0 0 188 24" fill="none" xmlns="http://www.w3.org/2000/svg"><path d="M0.973856 0.52624C0.947469 0.256351 1.16435 -0.0187278 1.44495 0.00268169C5.37458 -0.000562168 9.30421 -0.00121094 13.2338 0.00268169C13.4829 -0.0141864 13.7049 0.207045 13.6882 0.458119C13.694 1.71544 13.6895 2.97211 13.6908 4.22878C13.7242 4.49737 13.5048 4.75753 13.2313 4.73677C10.9273 4.74066 8.62332 4.73677 6.31934 4.73871C6.31934 10.1255 6.31805 15.5122 6.31998 20.8996C6.31484 21.0962 6.34894 21.3207 6.21701 21.4867C6.11469 21.6275 5.93642 21.6859 5.76845 21.6775C4.32556 21.6762 2.88268 21.6794 1.4398 21.6762C1.16371 21.6937 0.9494 21.4232 0.974499 21.1559C0.973212 14.2795 0.973212 7.40322 0.973856 0.52624Z" fill="#0085FF"></path><path d="M38.5391 6.67831C39.9311 6.14372 41.4641 6.01526 42.934 6.2352C44.3962 6.45578 45.805 7.12401 46.845 8.19384C48.3644 9.73791 49.0299 12.0054 48.8291 14.147C48.7763 14.6777 48.6489 15.246 48.257 15.6314C47.921 15.9648 47.4325 16.0712 46.9756 16.0712C44.2578 16.0738 41.5394 16.0712 38.8216 16.0732C39.0584 16.6733 39.5012 17.1897 40.0727 17.4875C40.9248 17.9429 41.9178 17.9987 42.8632 17.9864C43.6213 17.9877 44.3833 17.856 45.0835 17.5589C45.3397 17.4635 45.5681 17.3032 45.832 17.2273C46 17.1787 46.1293 17.3318 46.2175 17.4531C46.6667 18.0824 47.114 18.713 47.5651 19.3417C47.6552 19.4734 47.7575 19.6265 47.7183 19.7958C47.6726 20.0119 47.4892 20.1526 47.3418 20.2999C46.4125 21.1855 45.18 21.6863 43.9309 21.8946C41.6391 22.2826 39.1569 21.9569 37.1876 20.6554C36.2113 20.0132 35.3868 19.1367 34.8121 18.1136C34.2188 17.0651 33.888 15.8746 33.8088 14.6725C33.7033 13.1517 33.9633 11.5928 34.6461 10.2264C35.4416 8.60581 36.86 7.3141 38.5391 6.67831ZM39.776 10.9005C39.2354 11.2762 38.8924 11.8789 38.7295 12.5101C40.5837 12.5108 42.4378 12.5108 44.2919 12.5101C44.1812 11.9554 43.9515 11.4027 43.528 11.0166C43.109 10.6209 42.5363 10.4399 41.9738 10.3938C41.2169 10.3361 40.408 10.449 39.776 10.9005Z" fill="#0085FF"></path><path d="M86.1929 6.14452C87.6564 6.06797 89.1482 6.35797 90.4501 7.04632C92.0796 7.89361 93.3719 9.36308 94.0271 11.0882C95.0195 13.6735 94.6597 16.7805 92.9742 18.9928C91.7135 20.6822 89.7293 21.7669 87.6519 21.9908C85.2951 22.2762 82.7891 21.5522 81.072 19.8673C79.3756 18.2506 78.5389 15.8313 78.7146 13.5003C78.842 11.3704 79.8434 9.29301 81.4897 7.93838C82.8045 6.83676 84.4907 6.22432 86.1929 6.14452ZM86.0681 10.9532C85.0499 11.1122 84.1534 11.8673 83.8362 12.858C83.4687 13.9901 83.5935 15.3525 84.3787 16.2816C85.3588 17.4422 87.2445 17.6025 88.4454 16.702C89.1385 16.1914 89.5337 15.3486 89.6077 14.4988C89.6933 13.6054 89.506 12.6498 88.93 11.9452C88.2588 11.1031 87.1042 10.7592 86.0681 10.9532Z" fill="#0085FF"></path><path d="M145.427 6.83133C146.574 6.31491 147.842 6.10146 149.095 6.1365C150.2 6.16569 151.307 6.40249 152.302 6.89556C153.199 7.33673 153.996 7.98485 154.609 8.77959C155.743 10.2517 156.23 12.1688 156.096 14.0145C156.047 14.5563 155.95 15.1356 155.581 15.5567C155.25 15.9414 154.724 16.0718 154.238 16.0711C151.517 16.0744 148.796 16.0705 146.075 16.0731C146.3 16.6388 146.704 17.1338 147.233 17.4355C147.969 17.865 148.838 17.9681 149.674 17.987C150.509 18.0097 151.361 17.9409 152.147 17.6334C152.459 17.5302 152.738 17.3492 153.047 17.2376C153.206 17.1689 153.358 17.2928 153.444 17.4186C153.905 18.0583 154.359 18.7026 154.819 19.3429C154.908 19.4733 155.008 19.6251 154.972 19.7931C154.928 20.0059 154.75 20.1454 154.605 20.2907C153.797 21.066 152.75 21.55 151.67 21.7985C149.506 22.2682 147.156 22.1002 145.166 21.0797C143.465 20.2194 142.118 18.6805 141.502 16.8639C140.808 14.819 140.888 12.5035 141.758 10.5248C142.475 8.89313 143.804 7.54563 145.427 6.83133ZM146.95 10.9595C146.453 11.3364 146.139 11.9112 145.983 12.51C147.837 12.5107 149.691 12.5107 151.545 12.51C151.42 11.8515 151.102 11.1963 150.533 10.8187C150.053 10.4904 149.461 10.3847 148.892 10.3782C148.209 10.3782 147.498 10.5287 146.95 10.9595Z" fill="#0085FF"></path><path d="M14.9983 6.94839C14.9861 6.69926 15.212 6.48971 15.4546 6.50528C20.0285 6.50073 23.9672 6.50398 28.5411 6.50333C28.7078 6.49684 28.8815 6.56237 28.98 6.7038C29.1029 6.86664 29.0701 7.08268 29.0759 7.27407C29.074 10.6814 29.0752 14.0894 29.0752 17.4968C29.9447 17.5 30.8155 17.4916 31.6849 17.5007C31.9366 17.4955 32.1644 17.7193 32.1457 17.9768C32.1476 19.6014 32.1489 21.2265 32.1451 22.8511C32.1586 23.1339 31.8979 23.3733 31.6212 23.3493C30.2459 23.35 28.8706 23.3513 27.4953 23.3487C27.2488 23.363 27.0094 23.1664 26.9933 22.9153C26.9772 22.5027 26.9914 22.0901 26.9869 21.6774C23.6384 21.6774 20.9243 21.6774 17.5758 21.6774C17.5707 22.0875 17.5848 22.4975 17.57 22.9069C17.5565 23.1579 17.3223 23.3604 17.0758 23.3487C15.6805 23.35 14.2846 23.3532 12.8887 23.3474C12.6274 23.35 12.4022 23.108 12.417 22.8452C12.4144 21.1792 12.4144 19.5131 12.417 17.8477C12.4035 17.6791 12.4897 17.4656 12.686 17.4728C13.1185 17.4572 13.5683 17.3981 13.9409 17.1581C14.4262 16.861 14.71 16.3238 14.8432 15.7821C14.9636 15.313 14.9925 14.8264 14.9951 14.3437C14.9983 11.8784 14.9912 9.41307 14.9983 6.94839ZM20.1572 10.6834C20.1546 11.9705 20.1617 13.2577 20.154 14.5449C20.1424 15.5835 19.8541 16.6209 19.2967 17.4968C21.0273 17.4968 22.1228 17.4974 23.8533 17.4968C23.8533 15.2261 23.8533 12.9547 23.8533 10.684C22.4092 10.6834 21.6007 10.684 20.1572 10.6834Z" fill="#0085FF"></path><path d="M56.2561 7.01332C56.2368 6.72786 56.4974 6.48068 56.7774 6.50404C58.4088 6.50339 60.0396 6.50209 61.6711 6.50468C61.9079 6.49366 62.1338 6.63768 62.22 6.86151C63.6436 9.99248 65.0614 13.126 66.483 16.257C67.9028 13.1092 69.318 9.95939 70.739 6.81155C70.8252 6.5767 71.091 6.49236 71.3195 6.50339C72.9528 6.50469 74.5856 6.50079 76.219 6.50533C76.4899 6.49755 76.7544 6.72981 76.7422 7.01267C76.7454 11.7292 76.7448 16.4465 76.7428 21.163C76.757 21.4446 76.4963 21.6814 76.2247 21.6756C74.825 21.6795 73.4252 21.6775 72.0261 21.6762C71.75 21.6931 71.5035 21.4427 71.5228 21.165C71.519 19.4684 71.5228 17.7719 71.5209 16.0747C70.7615 17.7868 70.0014 19.4983 69.244 21.211C69.1609 21.4556 68.9608 21.6833 68.6847 21.6736C67.2244 21.6814 65.7635 21.6769 64.3033 21.6762C64.0697 21.6911 63.8405 21.5575 63.7524 21.3369C62.9795 19.6053 62.2168 17.8692 61.4458 16.137C61.4439 17.8115 61.4471 19.486 61.4439 21.1604C61.4626 21.429 61.2341 21.6814 60.9651 21.6749C59.5679 21.6801 58.1707 21.6769 56.7735 21.6769C56.4904 21.7009 56.2329 21.4452 56.2561 21.1591C56.2542 16.4439 56.2535 11.7286 56.2561 7.01332Z" fill="#0085FF"></path><path d="M96.5572 7.00865C96.5398 6.72514 96.7992 6.4812 97.0765 6.50391C98.4718 6.50391 99.8671 6.50067 101.262 6.50586C101.529 6.49937 101.76 6.7446 101.744 7.01255C101.748 9.52654 101.744 12.0399 101.746 14.5532C103.341 11.9971 104.933 9.4383 106.527 6.88149C106.657 6.64664 106.912 6.49418 107.181 6.50456C108.75 6.50196 110.319 6.50326 111.887 6.50391C112.167 6.48704 112.447 6.7206 112.435 7.01384C112.437 11.7291 112.437 16.4444 112.435 21.1597C112.45 21.4529 112.172 21.6955 111.889 21.6761C110.49 21.6767 109.09 21.6806 107.691 21.6741C107.422 21.68 107.195 21.4269 107.215 21.159C107.213 18.6074 107.215 16.0551 107.214 13.5029C105.806 15.7684 104.4 18.0352 102.992 20.3013C102.765 20.6601 102.55 21.0273 102.316 21.3815C102.171 21.5982 101.905 21.6916 101.654 21.678C100.126 21.6761 98.5979 21.6787 97.0701 21.6761C96.7889 21.6994 96.534 21.4445 96.5565 21.161C96.5546 16.4431 96.554 11.7259 96.5572 7.00865Z" fill="#0085FF"></path><path d="M122.999 6.7383C123.081 6.56119 123.285 6.49177 123.469 6.50345C128.021 6.5041 131.938 6.5028 136.491 6.50345C136.657 6.49631 136.832 6.56119 136.931 6.70262C137.055 6.86546 137.022 7.0815 137.028 7.27289C137.026 10.6809 137.028 14.0889 137.028 17.4969C137.897 17.5001 138.767 17.4917 139.637 17.5008C139.888 17.4956 140.116 17.7188 140.097 17.9763C140.1 19.5996 140.101 21.2234 140.097 22.8466C140.11 23.1049 139.892 23.3456 139.634 23.3469C138.285 23.3559 136.935 23.3462 135.585 23.3514C135.276 23.4065 134.923 23.195 134.941 22.8525C134.935 22.4606 134.941 22.0688 134.939 21.6776C131.591 21.6776 128.877 21.6776 125.528 21.6776C125.523 22.0882 125.537 22.4996 125.522 22.9096C125.507 23.16 125.273 23.3611 125.028 23.3488C123.65 23.352 122.274 23.3494 120.897 23.3494C120.619 23.3754 120.354 23.1354 120.369 22.8505C120.366 21.1838 120.367 19.5172 120.369 17.8505C120.354 17.6805 120.441 17.4644 120.64 17.4729C121.055 17.4573 121.484 17.4048 121.848 17.1861C122.272 16.9441 122.56 16.5127 122.715 16.054C122.938 15.4033 122.953 14.7059 122.948 14.0247C122.948 11.7955 122.949 9.56695 122.948 7.33777C122.957 7.13924 122.915 6.9258 122.999 6.7383ZM128.11 10.6835C128.11 11.8389 128.109 12.9944 128.11 14.1492C128.148 15.3177 127.885 16.5094 127.249 17.4969C128.98 17.4975 130.075 17.4975 131.806 17.4969C131.806 15.2262 131.806 12.9548 131.806 10.6841C130.362 10.6835 129.553 10.6841 128.11 10.6835Z" fill="#0085FF"></path><path d="M157.334 6.95293C157.318 6.69796 157.55 6.48646 157.799 6.50462C161.643 6.50138 165.488 6.50398 169.333 6.50333C169.585 6.47543 169.841 6.6759 169.831 6.9419C169.838 8.09282 169.834 9.24374 169.834 10.3947C169.852 10.6451 169.643 10.8812 169.39 10.8663C168.309 10.8735 167.228 10.8663 166.148 10.8696C166.148 14.3009 166.148 17.7329 166.148 21.1643C166.192 21.4822 165.892 21.7352 165.588 21.6781C164.303 21.6768 163.018 21.6768 161.733 21.6781C161.544 21.6697 161.334 21.7099 161.17 21.5963C161.028 21.5029 160.98 21.3245 160.988 21.163C160.988 17.7316 160.988 14.3003 160.988 10.8696C159.926 10.8676 158.864 10.8715 157.803 10.8676C157.539 10.8923 157.306 10.6548 157.333 10.3901C157.332 9.24439 157.328 8.09866 157.334 6.95293Z" fill="#0085FF"></path><path d="M172.309 6.6058C172.437 6.4968 172.613 6.50199 172.773 6.50199C174.124 6.50653 175.476 6.49875 176.827 6.50589C177.094 6.4994 177.325 6.74788 177.308 7.01712C177.311 9.52916 177.308 12.0412 177.31 14.5532C178.855 12.0756 180.398 9.59663 181.943 7.11768C182.06 6.93537 182.157 6.72257 182.352 6.60709C182.507 6.50589 182.698 6.50199 182.879 6.50199C184.405 6.50524 185.93 6.50069 187.456 6.50459C187.733 6.48902 188.009 6.72257 187.998 7.01258C188.001 11.7278 188 16.4431 187.998 21.1584C188.015 21.4536 187.734 21.6956 187.451 21.6768C186.053 21.6768 184.655 21.6807 183.258 21.6748C182.987 21.6819 182.758 21.427 182.779 21.1577C182.776 18.6061 182.779 16.0545 182.778 13.5029C181.163 16.1012 179.55 18.7002 177.937 21.2992C177.805 21.5353 177.548 21.6878 177.279 21.6761C175.733 21.6787 174.187 21.6774 172.641 21.6768C172.357 21.7027 172.097 21.4471 172.12 21.1603C172.117 16.4665 172.12 11.7726 172.118 7.07875C172.108 6.90293 172.159 6.71219 172.309 6.6058Z" fill="#0085FF"></path></svg>